<svg aria-hidden="true" style="position: absolute; width: 0; height: 0; overflow: hidden;" version="1.1"
     xmlns="http://www.w3.org/2000/svg">
    <defs>
        <symbol id="icon-add-to-list" viewBox="0 0 20 20">
            <title>add-to-list</title>
            <path d="M19.4 9h-3.4v-3.4c0-0.6-0.4-0.6-1-0.6s-1 0-1 0.6v3.4h-3.4c-0.6 0-0.6 0.4-0.6 1s0 1 0.6 1h3.4v3.4c0 0.6 0.4 0.6 1 0.6s1 0 1-0.6v-3.4h3.4c0.6 0 0.6-0.4 0.6-1s0-1-0.6-1zM7.4 9h-6.8c-0.6 0-0.6 0.4-0.6 1s0 1 0.6 1h6.8c0.6 0 0.6-0.4 0.6-1s0-1-0.6-1zM7.4 14h-6.8c-0.6 0-0.6 0.4-0.6 1s0 1 0.6 1h6.8c0.6 0 0.6-0.4 0.6-1s0-1-0.6-1zM7.4 4h-6.8c-0.6 0-0.6 0.4-0.6 1s0 1 0.6 1h6.8c0.6 0 0.6-0.4 0.6-1s0-1-0.6-1z"></path>
        </symbol>
        <symbol id="icon-warning" viewBox="0 0 20 20">
            <title>warning</title>
            <path d="M19.511 17.98l-8.907-16.632c-0.124-0.215-0.354-0.348-0.604-0.348s-0.481 0.133-0.604 0.348l-8.906 16.632c-0.121 0.211-0.119 0.471 0.005 0.68 0.125 0.211 0.352 0.34 0.598 0.34h17.814c0.245 0 0.474-0.129 0.598-0.34 0.124-0.209 0.126-0.469 0.006-0.68zM11 17h-2v-2h2v2zM11 13.5h-2v-6.5h2v6.5z"></path>
        </symbol>
        <symbol id="icon-chevron-down" viewBox="0 0 20 20">
            <title>chevron-down</title>
            <path d="M4.516 7.548c0.436-0.446 1.043-0.481 1.576 0l3.908 3.747 3.908-3.747c0.533-0.481 1.141-0.446 1.574 0 0.436 0.445 0.408 1.197 0 1.615-0.406 0.418-4.695 4.502-4.695 4.502-0.217 0.223-0.502 0.335-0.787 0.335s-0.57-0.112-0.789-0.335c0 0-4.287-4.084-4.695-4.502s-0.436-1.17 0-1.615z"></path>
        </symbol>
        <symbol id="icon-chevron-right" viewBox="0 0 20 20">
            <title>chevron-right</title>
            <path d="M9.163 4.516c0.418 0.408 4.502 4.695 4.502 4.695 0.223 0.219 0.335 0.504 0.335 0.789s-0.112 0.57-0.335 0.787c0 0-4.084 4.289-4.502 4.695-0.418 0.408-1.17 0.436-1.615 0-0.446-0.434-0.481-1.041 0-1.574l3.747-3.908-3.747-3.908c-0.481-0.533-0.446-1.141 0-1.576s1.197-0.409 1.615 0z"></path>
        </symbol>
        <symbol id="icon-dot-single" viewBox="0 0 20 20">
            <title>dot-single</title>
            <path d="M7.8 10c0 1.215 0.986 2.2 2.201 2.2s2.199-0.986 2.199-2.2c0-1.215-0.984-2.199-2.199-2.199s-2.201 0.984-2.201 2.199z"></path>
        </symbol>
        <symbol id="icon-dots-three-horizontal" viewBox="0 0 20 20">
            <title>dots-three-horizontal</title>
            <path d="M10.001 7.8c-1.215 0-2.201 0.985-2.201 2.2s0.986 2.2 2.201 2.2c1.215 0 2.199-0.985 2.199-2.2s-0.984-2.2-2.199-2.2zM3.001 7.8c-1.215 0-2.201 0.985-2.201 2.2s0.986 2.2 2.201 2.2c1.215 0 2.199-0.986 2.199-2.2s-0.984-2.2-2.199-2.2zM17.001 7.8c-1.215 0-2.201 0.985-2.201 2.2s0.986 2.2 2.201 2.2c1.215 0 2.199-0.985 2.199-2.2s-0.984-2.2-2.199-2.2z"></path>
        </symbol>
        <symbol id="icon-dots-three-vertical" viewBox="0 0 20 20">
            <title>dots-three-vertical</title>
            <path d="M10.001 7.8c-1.215 0-2.201 0.985-2.201 2.2s0.986 2.2 2.201 2.2c1.215 0 2.199-0.985 2.199-2.2s-0.984-2.2-2.199-2.2zM10.001 5.2c1.215 0 2.199-0.986 2.199-2.2s-0.984-2.2-2.199-2.2c-1.215 0-2.201 0.985-2.201 2.2s0.986 2.2 2.201 2.2zM10.001 14.8c-1.215 0-2.201 0.985-2.201 2.2s0.986 2.2 2.201 2.2c1.215 0 2.199-0.985 2.199-2.2s-0.984-2.2-2.199-2.2z"></path>
        </symbol>
        <symbol id="icon-dots-two-horizontal" viewBox="0 0 20 20">
            <title>dots-two-horizontal</title>
            <path d="M14.001 7.8c-1.215 0-2.201 0.985-2.201 2.2s0.986 2.2 2.201 2.2c1.215 0 2.199-0.985 2.199-2.2s-0.984-2.2-2.199-2.2zM6.001 7.8c-1.215 0-2.201 0.985-2.201 2.2s0.986 2.2 2.201 2.2c1.215 0 2.199-0.986 2.199-2.2s-0.984-2.2-2.199-2.2z"></path>
        </symbol>
        <symbol id="icon-dots-two-vertical" viewBox="0 0 20 20">
            <title>dots-two-vertical</title>
            <path d="M10.001 8.2c1.215 0 2.199-0.986 2.199-2.2s-0.984-2.2-2.199-2.2c-1.215 0-2.201 0.985-2.201 2.2s0.986 2.2 2.201 2.2zM10.001 11.8c-1.215 0-2.201 0.985-2.201 2.2s0.986 2.2 2.201 2.2c1.215 0 2.199-0.985 2.199-2.2s-0.984-2.2-2.199-2.2z"></path>
        </symbol>
        <symbol id="icon-check" viewBox="0 0 20 20">
            <title>check</title>
            <path d="M8.294 16.998c-0.435 0-0.847-0.203-1.111-0.553l-3.573-4.721c-0.465-0.613-0.344-1.486 0.27-1.951 0.615-0.467 1.488-0.344 1.953 0.27l2.351 3.104 5.911-9.492c0.407-0.652 1.267-0.852 1.921-0.445s0.854 1.266 0.446 1.92l-6.984 11.21c-0.242 0.391-0.661 0.635-1.12 0.656-0.022 0.002-0.042 0.002-0.064 0.002z"></path>
        </symbol>
        <symbol id="icon-circle-with-cross" viewBox="0 0 20 20">
            <title>circle-with-cross</title>
            <path d="M10 1.6c-4.639 0-8.4 3.761-8.4 8.4s3.761 8.4 8.4 8.4 8.4-3.761 8.4-8.4c0-4.639-3.761-8.4-8.4-8.4zM14.789 13.061l-1.729 1.729-3.060-3.061-3.061 3.060-1.729-1.729 3.062-3.060-3.061-3.061 1.729-1.728 3.060 3.060 3.061-3.061 1.729 1.729-3.062 3.061 3.061 3.061z"></path>
        </symbol>
        <symbol id="icon-circle-with-minus" viewBox="0 0 20 20">
            <title>circle-with-minus</title>
            <path d="M10 1.6c-4.639 0-8.4 3.761-8.4 8.4s3.761 8.4 8.4 8.4 8.4-3.761 8.4-8.4c0-4.639-3.761-8.4-8.4-8.4zM15 11h-10v-2h10v2z"></path>
        </symbol>
        <symbol id="icon-circle-with-plus" viewBox="0 0 20 20">
            <title>circle-with-plus</title>
            <path d="M10 1.6c-4.639 0-8.4 3.761-8.4 8.4s3.761 8.4 8.4 8.4 8.4-3.761 8.4-8.4c0-4.639-3.761-8.4-8.4-8.4zM15 11h-4v4h-2v-4h-4v-2h4v-4h2v4h4v2z"></path>
        </symbol>
        <symbol id="icon-cross" viewBox="0 0 20 20">
            <title>cross</title>
            <path d="M14.348 14.849c-0.469 0.469-1.229 0.469-1.697 0l-2.651-3.030-2.651 3.029c-0.469 0.469-1.229 0.469-1.697 0-0.469-0.469-0.469-1.229 0-1.697l2.758-3.15-2.759-3.152c-0.469-0.469-0.469-1.228 0-1.697s1.228-0.469 1.697 0l2.652 3.031 2.651-3.031c0.469-0.469 1.228-0.469 1.697 0s0.469 1.229 0 1.697l-2.758 3.152 2.758 3.15c0.469 0.469 0.469 1.229 0 1.698z"></path>
        </symbol>
        <symbol id="icon-info-with-circle" viewBox="0 0 20 20">
            <title>info-with-circle</title>
            <path d="M10 0.4c-5.303 0-9.601 4.298-9.601 9.6 0 5.303 4.298 9.601 9.601 9.601 5.301 0 9.6-4.298 9.6-9.601s-4.299-9.6-9.6-9.6zM10.896 3.866c0.936 0 1.211 0.543 1.211 1.164 0 0.775-0.62 1.492-1.679 1.492-0.886 0-1.308-0.445-1.282-1.182 0-0.621 0.519-1.474 1.75-1.474zM8.498 15.75c-0.64 0-1.107-0.389-0.66-2.094l0.733-3.025c0.127-0.484 0.148-0.678 0-0.678-0.191 0-1.022 0.334-1.512 0.664l-0.319-0.523c1.555-1.299 3.343-2.061 4.108-2.061 0.64 0 0.746 0.756 0.427 1.92l-0.84 3.18c-0.149 0.562-0.085 0.756 0.064 0.756 0.192 0 0.82-0.232 1.438-0.719l0.362 0.486c-1.513 1.512-3.162 2.094-3.801 2.094z"></path>
        </symbol>
        <symbol id="icon-info" viewBox="0 0 20 20">
            <title>info</title>
            <path d="M12.432 0c1.34 0 2.010 0.912 2.010 1.957 0 1.305-1.164 2.512-2.679 2.512-1.269 0-2.009-0.75-1.974-1.99 0-1.043 0.881-2.479 2.643-2.479zM8.309 20c-1.058 0-1.833-0.652-1.093-3.524l1.214-5.092c0.211-0.814 0.246-1.141 0-1.141-0.317 0-1.689 0.562-2.502 1.117l-0.528-0.88c2.572-2.186 5.531-3.467 6.801-3.467 1.057 0 1.233 1.273 0.705 3.23l-1.391 5.352c-0.246 0.945-0.141 1.271 0.106 1.271 0.317 0 1.357-0.392 2.379-1.207l0.6 0.814c-2.502 2.547-5.235 3.527-6.291 3.527z"></path>
        </symbol>
        <symbol id="icon-list" viewBox="0 0 20 20">
            <title>list</title>
            <path d="M14.4 9h-5.8c-0.552 0-0.6 0.447-0.6 1s0.048 1 0.6 1h5.8c0.552 0 0.6-0.447 0.6-1s-0.048-1-0.6-1zM16.4 14h-7.8c-0.552 0-0.6 0.447-0.6 1s0.048 1 0.6 1h7.8c0.552 0 0.6-0.447 0.6-1s-0.048-1-0.6-1zM8.6 6h7.8c0.552 0 0.6-0.447 0.6-1s-0.048-1-0.6-1h-7.8c-0.552 0-0.6 0.447-0.6 1s0.048 1 0.6 1zM5.4 9h-1.8c-0.552 0-0.6 0.447-0.6 1s0.048 1 0.6 1h1.8c0.552 0 0.6-0.447 0.6-1s-0.048-1-0.6-1zM5.4 14h-1.8c-0.552 0-0.6 0.447-0.6 1s0.048 1 0.6 1h1.8c0.552 0 0.6-0.447 0.6-1s-0.048-1-0.6-1zM5.4 4h-1.8c-0.552 0-0.6 0.447-0.6 1s0.048 1 0.6 1h1.8c0.552 0 0.6-0.447 0.6-1s-0.048-1-0.6-1z"></path>
        </symbol>
        <symbol id="icon-menu" viewBox="0 0 20 20">
            <title>menu</title>
            <path d="M16.4 9h-12.8c-0.552 0-0.6 0.447-0.6 1s0.048 1 0.6 1h12.8c0.552 0 0.6-0.447 0.6-1s-0.048-1-0.6-1zM16.4 13h-12.8c-0.552 0-0.6 0.447-0.6 1s0.048 1 0.6 1h12.8c0.552 0 0.6-0.447 0.6-1s-0.048-1-0.6-1zM3.6 7h12.8c0.552 0 0.6-0.447 0.6-1s-0.048-1-0.6-1h-12.8c-0.552 0-0.6 0.447-0.6 1s0.048 1 0.6 1z"></path>
        </symbol>
        <symbol id="icon-new" viewBox="0 0 20 20">
            <title>new</title>
            <path d="M18.69 12.344l-1.727-1.538c-0.5-0.445-0.5-1.174 0-1.619l1.727-1.539c0.5-0.445 0.367-0.859-0.296-0.924l-2.29-0.217c-0.662-0.062-1.020-0.633-0.791-1.266l1.215-3.383c0.228-0.635-0.051-0.865-0.619-0.514l-2.701 1.67c-0.568 0.354-1.303 0.16-1.631-0.426l-0.978-1.746c-0.329-0.588-0.872-0.59-1.207-0.008l-0.909 1.58c-0.337 0.585-1.108 0.833-1.713 0.556l-1.6-0.734c-0.608-0.28-1.073 0.042-1.037 0.716l0.086 1.615c0.037 0.674-0.461 1.367-1.104 1.541l-1.545 0.414c-0.642 0.174-0.76 0.68-0.26 1.125l1.727 1.539c0.5 0.445 0.5 1.174 0 1.619l-1.727 1.539c-0.5 0.445-0.368 0.877 0.293 0.957l2.095 0.254c0.661 0.080 1.029 0.67 0.818 1.311l-1.074 3.258c-0.211 0.641 0.090 0.889 0.668 0.555l2.463-1.426c0.578-0.334 1.356-0.15 1.729 0.408l1.022 1.539c0.372 0.559 0.931 0.529 1.24-0.068l0.899-1.733c0.31-0.598 1.052-0.842 1.648-0.543l1.734 0.867c0.598 0.297 1.057-0.010 1.021-0.682l-0.087-1.617c-0.035-0.674 0.461-1.365 1.106-1.539l1.543-0.416c0.644-0.174 0.762-0.68 0.262-1.125zM11 14h-2v-2h2v2zM11 11h-2v-5h2v5z"></path>
        </symbol>
        <symbol id="icon-reply" viewBox="0 0 20 20">
            <title>reply</title>
            <path d="M19 16.685c0 0-2.225-9.732-11-9.732v-3.984l-7 6.573 7 6.69v-4.357c4.763-0.001 8.516 0.421 11 4.81z"></path>
        </symbol>
        <symbol id="icon-squared-cross" viewBox="0 0 20 20">
            <title>squared-cross</title>
            <path d="M16 2h-12c-1.1 0-2 0.9-2 2v12c0 1.1 0.9 2 2 2h12c1.1 0 2-0.9 2-2v-12c0-1.1-0.9-2-2-2zM13.061 14.789l-3.061-3.060-3.061 3.060-1.729-1.728 3.061-3.061-3.060-3.061 1.729-1.729 3.060 3.061 3.059-3.061 1.729 1.729-3.059 3.061 3.060 3.061-1.728 1.728z"></path>
        </symbol>
        <symbol id="icon-squared-minus" viewBox="0 0 20 20">
            <title>squared-minus</title>
            <path d="M16 2h-12c-1.1 0-2 0.9-2 2v12c0 1.1 0.9 2 2 2h12c1.1 0 2-0.9 2-2v-12c0-1.1-0.9-2-2-2zM15 11h-10v-2h10v2z"></path>
        </symbol>
        <symbol id="icon-squared-plus" viewBox="0 0 20 20">
            <title>squared-plus</title>
            <path d="M16 2h-12c-1.1 0-2 0.9-2 2v12c0 1.1 0.9 2 2 2h12c1.1 0 2-0.9 2-2v-12c0-1.1-0.9-2-2-2zM15 11h-4v4h-2v-4h-4v-2h4v-4h2v4h4v2z"></path>
        </symbol>
    </defs>
</svg>
