<?xml version="1.0" encoding="iso-8859-1"?>
<!-- Generator: Adobe Illustrator 18.0.0, SVG Export Plug-In . SVG Version: 6.00 Build 0)  -->
<!DOCTYPE svg PUBLIC "-//W3C//DTD SVG 1.1//EN" "http://www.w3.org/Graphics/SVG/1.1/DTD/svg11.dtd">
<svg version="1.1" id="Capa_1" xmlns="http://www.w3.org/2000/svg"  x="0px" y="0px"
	 viewBox="0 0 436.558 436.558" style="enable-background:new 0 0 436.558 436.558;" xml:space="preserve">
<path d="M335.654,239.048l-55.617-16.857c-1.344-4.064-4.323-7.579-8.491-10.555c4.585-5.094,8.455-10.251,11.397-14.517
	c6.979-10.122,12.79-21.023,16.813-31.541c1.98-4.436,3.67-8.889,5.038-13.259c5.415-4.538,8.603-11.318,8.603-18.429v-17.418
	c0-5-1.572-9.888-4.464-13.941V78.01c0-43.019-34.996-78.01-78.01-78.01h-25.288c-43.014,0-78.01,34.991-78.01,78.01v24.523
	c-2.892,4.053-4.463,8.944-4.463,13.939v17.418c0,7.105,3.188,13.88,8.603,18.426c1.366,4.365,3.057,8.822,5.038,13.269
	c4.025,10.514,9.834,21.413,16.812,31.528c2.943,4.268,6.813,9.426,11.399,14.522c-4.168,2.976-7.148,6.492-8.492,10.555
	l-55.617,16.857c-39.159,11.254-62.625,180.444-62.625,180.444h0.003c-0.118,0.752-0.197,1.517-0.197,2.302
	c0,8.154,6.609,14.764,14.764,14.764h330.86c8.155,0,14.764-6.609,14.764-14.764C398.473,414.715,374.813,250.302,335.654,239.048z
	 M204.79,252.411c0.948,1.051,1.406,2.454,1.261,3.862l-2.74,26.575c-0.211,2.045-1.652,3.752-3.632,4.304
	c-0.444,0.124-0.895,0.184-1.341,0.184c-1.544,0-3.032-0.717-3.993-1.99l-14.05-18.636c-0.654-0.868-1.008-1.926-1.007-3.013
	l0.018-29.881c0.001-1.752,0.919-3.376,2.421-4.281c1.502-0.904,3.367-0.956,4.916-0.137c4.09,2.162,8.174,3.615,12.139,4.319
	c2.387,0.423,4.126,2.499,4.126,4.923v12.467C203.619,251.386,204.266,251.83,204.79,252.411z M230.506,256.272
	c-0.145-1.408,0.313-2.811,1.261-3.862c0.524-0.581,1.171-1.024,1.883-1.304V238.64c0-2.424,1.739-4.499,4.126-4.923
	c3.963-0.704,8.046-2.156,12.135-4.317c1.55-0.818,3.415-0.766,4.917,0.138c1.502,0.905,2.419,2.529,2.419,4.282l0.003,29.88
	c0,1.086-0.353,2.142-1.007,3.009l-14.031,18.623c-0.96,1.274-2.449,1.992-3.993,1.992c-0.446,0-0.897-0.06-1.341-0.184
	c-1.98-0.551-3.422-2.259-3.633-4.304L230.506,256.272z M157.286,140.165l-0.271-2.071l-4.852-3.153
	c-1.419-0.922-2.275-2.5-2.275-4.192v-8.232c0-2.761,2.239-5,5-5h2.043v-8.916c0-1.895,1.071-3.627,2.767-4.474
	c6.884-3.437,20.544-9.202,34.688-9.202c11.285,0,20.642,3.754,27.812,11.157c8.933,9.233,19.229,13.914,30.604,13.914
	c6.439,0,13.094-1.52,19.782-4.516c1.546-0.693,3.339-0.555,4.763,0.366c0.665,0.431,1.208,1.007,1.597,1.67h2.728
	c2.761,0,5,2.239,5,5v8.232c0,1.692-0.856,3.27-2.275,4.192l-4.852,3.154l-0.27,2.059c-1.58,11.956-8.287,27.444-17.942,41.438
	c-12.226,17.733-23.687,25.671-29.62,25.671h-26.862c-5.934,0-17.395-7.939-29.622-25.675
	C165.572,167.599,158.865,152.113,157.286,140.165z"/>
<g>
</g>
<g>
</g>
<g>
</g>
<g>
</g>
<g>
</g>
<g>
</g>
<g>
</g>
<g>
</g>
<g>
</g>
<g>
</g>
<g>
</g>
<g>
</g>
<g>
</g>
<g>
</g>
<g>
</g>
</svg>
