<?xml version="1.0" encoding="iso-8859-1"?>
<!-- Generator: Adobe Illustrator 19.0.0, SVG Export Plug-In . SVG Version: 6.00 Build 0)  -->
<svg version="1.1" id="Layer_1" xmlns="http://www.w3.org/2000/svg"  x="0px" y="0px"
	 viewBox="0 0 512 512" xml:space="preserve">

<path d="M473.043,411.826h-33.391V183.651C439.652,82.224,357.428,0,256.001,0H256C154.572,0,72.348,82.224,72.348,183.651
			v228.175H38.957c-18.441,0-33.391,14.95-33.391,33.391v50.087c0,9.22,7.475,16.696,16.696,16.696h467.478
			c9.22,0,16.696-7.475,16.696-16.696v-50.087C506.435,426.776,491.484,411.826,473.043,411.826z M105.739,183.652
			c0-83.152,67.886-150.737,151.141-150.259c82.914,0.477,149.38,68.996,149.38,151.911v226.521H105.739V183.652z M473.043,478.609
			H38.957v-33.391h434.087V478.609z"/>

<path d="M322.783,166.957h-50.087V116.87c0-9.22-7.475-16.696-16.696-16.696c-9.22,0-16.696,7.475-16.696,16.696v50.087h-50.087
			c-9.22,0-16.696,7.475-16.696,16.696c0,9.22,7.475,16.696,16.696,16.696h50.087v83.478c0,9.22,7.475,16.696,16.696,16.696
			c9.22,0,16.696-7.475,16.696-16.696v-83.478h50.087c9.22,0,16.696-7.475,16.696-16.696
			C339.478,174.432,332.003,166.957,322.783,166.957z"/>

</svg>
